<svg width="149" height="76" viewBox="0 0 149 76" fill="none" xmlns="http://www.w3.org/2000/svg">
<path d="M21.5319 42.2002C23.1547 42.2002 24.4703 40.8846 24.4703 39.2618C24.4703 37.639 23.1547 36.3235 21.5319 36.3235C19.9091 36.3235 18.5935 37.639 18.5935 39.2618C18.5935 40.8846 19.9091 42.2002 21.5319 42.2002Z" fill="url(#paint0_linear_361_193)"/>
<path fill-rule="evenodd" clip-rule="evenodd" d="M26.1218 26.3308C26.4487 28.5168 26.8131 30.6969 27.1486 32.8815C27.474 35.0006 27.9535 37.2232 27.8604 39.3751C27.835 40.2687 27.6285 41.1479 27.2534 41.9594C26.8121 42.8735 26.107 43.4361 25.3438 44.0779C23.5877 45.5545 21.7354 46.8911 19.8779 48.234C18.9632 48.8927 18.0421 49.5439 17.0999 50.1633C16.6827 50.4644 16.2471 50.7391 15.7956 50.9859C15.3376 51.2107 14.9936 51.3707 15.6241 51.7389C16.3356 52.1467 17.0799 52.4944 17.8493 52.7784C18.6226 53.0709 19.4251 53.5587 20.1704 53.0781C22.3338 51.6831 24.5998 50.3798 26.6116 48.768C28.761 47.045 30.9243 44.8655 31.6251 42.1158C31.6471 42.0295 31.6676 41.9429 31.6866 41.8559C32.0877 40.0254 31.9944 38.1279 31.8502 36.2735C31.6467 33.913 31.2751 31.5701 30.7382 29.2625C30.7227 29.193 30.5804 28.2952 30.5807 28.2954L26.1218 26.3308Z" fill="url(#paint1_linear_361_193)"/>
<path d="M45.0109 39.7383C46.6337 39.7383 47.9493 38.4227 47.9493 36.7999C47.9493 35.1771 46.6337 33.8616 45.0109 33.8616C43.3881 33.8616 42.0725 35.1771 42.0725 36.7999C42.0725 38.4227 43.3881 39.7383 45.0109 39.7383Z" fill="url(#paint2_linear_361_193)"/>
<path fill-rule="evenodd" clip-rule="evenodd" d="M53.9485 47.2116C51.8893 46.4084 49.8166 45.6406 47.7543 44.8454C45.7539 44.0741 43.5871 43.3851 41.7662 42.2343C41.0035 41.768 40.3433 41.1517 39.8258 40.4228C39.2521 39.5854 39.1145 38.6939 38.9372 37.7127C38.5291 35.4549 38.2903 33.1832 38.0487 30.9039C37.932 29.7828 37.825 28.6598 37.756 27.5344C37.7022 27.0227 37.6804 26.5082 37.6909 25.9938C37.7235 25.4846 37.7557 25.1067 37.1228 25.4705C36.4152 25.8851 35.7434 26.358 35.1144 26.8844C34.4762 27.4098 33.654 27.8636 33.7004 28.7492C33.8351 31.3198 33.8392 33.9338 34.2374 36.4806C34.6637 39.2022 35.4791 42.1628 37.5165 44.138C37.5804 44.1999 37.6453 44.2608 37.7113 44.3205C39.1001 45.5787 40.7929 46.4412 42.4736 47.2381C44.6228 48.2352 46.8404 49.0777 49.1096 49.7592C49.1776 49.7803 50.0273 50.1032 50.027 50.1034L53.9485 47.2116Z" fill="url(#paint3_linear_361_193)"/>
<path d="M34.4417 53.1379C36.0645 53.1379 37.3801 51.8224 37.3801 50.1996C37.3801 48.5768 36.0645 47.2612 34.4417 47.2612C32.8189 47.2612 31.5033 48.5768 31.5033 50.1996C31.5033 51.8224 32.8189 53.1379 34.4417 53.1379Z" fill="url(#paint4_linear_361_193)"/>
<path d="M68.4938 51.5426C66.959 51.5426 65.6211 51.2453 64.4799 50.6506C63.3489 50.0664 62.4211 49.1537 61.8186 48.0324C61.1855 46.8815 60.869 45.4717 60.869 43.8029V42.8822H64.926V44.1482C64.926 45.2609 65.252 46.1384 65.9042 46.7808C66.556 47.4237 67.4096 47.745 68.4651 47.7447C69.5197 47.7447 70.3733 47.4234 71.0258 46.7808C71.6778 46.1384 72.0038 45.2608 72.0041 44.1482V33.0133H76.0895V43.8029C76.0895 45.4718 75.7731 46.8816 75.1403 48.0324C74.5404 49.1508 73.6181 50.063 72.4932 50.6507C71.3611 51.245 70.028 51.5423 68.4938 51.5426ZM63.4297 33.5887V29.9922H76.0895V33.5887H63.4297Z" fill="#0D1823"/>
<path d="M87.2536 51.5425C86.0037 51.5669 84.7615 51.3419 83.5995 50.8808C82.5957 50.4741 81.6852 49.8671 80.9237 49.097C80.2045 48.3642 79.6416 47.493 79.2693 46.5361C78.8945 45.5732 78.704 44.5484 78.708 43.515V42.9108C78.7032 41.8621 78.8985 40.8222 79.2835 39.8467C79.6747 38.855 80.2663 37.9548 81.0213 37.2023C81.7763 36.4497 82.6785 35.8611 83.6715 35.4732C84.8123 35.0275 86.0289 34.8077 87.2536 34.8259C88.4738 34.8068 89.6859 35.0267 90.8216 35.4732C91.8109 35.8644 92.7095 36.4544 93.4617 37.2066C94.2139 37.9589 94.8039 38.8574 95.195 39.8467C95.5798 40.8222 95.7752 41.8621 95.7706 42.9108V43.515C95.7747 44.5484 95.5842 45.5732 95.2092 46.5361C94.8368 47.4929 94.274 48.3642 93.5548 49.097C92.7931 49.8669 91.8827 50.4738 90.879 50.8808C89.7265 51.3402 88.4941 51.5652 87.2536 51.5425ZM87.2536 48.1186C88.1144 48.1452 88.9643 47.9202 89.6992 47.4713C90.3675 47.043 90.9013 46.4346 91.2388 45.7162C91.5923 44.921 91.7736 44.0601 91.7711 43.1899C91.7686 42.3196 91.5823 41.4598 91.2243 40.6666C90.8816 39.9434 90.3434 39.3305 89.6705 38.8971C88.9451 38.4507 88.1051 38.2257 87.2536 38.2497C86.3978 38.2269 85.5536 38.4517 84.8225 38.8971C84.143 39.3268 83.5992 39.9404 83.2542 40.6666C82.8965 41.4598 82.7102 42.3197 82.7077 43.1899C82.7052 44.06 82.8865 44.9209 83.2397 45.7162C83.5771 46.4348 84.1108 47.0432 84.7793 47.4713C85.5237 47.9228 86.3835 48.1477 87.2536 48.1186Z" fill="#0D1823"/>
<path d="M107.596 51.5139C106.412 51.5388 105.242 51.2563 104.2 50.6938C103.216 50.1407 102.415 49.3102 101.899 48.3057C101.342 47.2605 101.035 45.9898 100.978 44.4933H101.582V50.996H98.417V29.9922H102.416V40.5229L101.352 42.134C101.428 40.5229 101.749 39.1802 102.316 38.106C102.824 37.0927 103.619 36.2519 104.603 35.6891C105.599 35.1429 106.719 34.8653 107.854 34.8835C108.865 34.8702 109.866 35.0764 110.789 35.4877C111.658 35.8806 112.433 36.4544 113.062 37.1708C113.705 37.9079 114.199 38.763 114.516 39.6885C114.859 40.698 115.029 41.7583 115.019 42.8247V43.4289C115.028 44.5057 114.853 45.5761 114.501 46.5938C114.174 47.541 113.666 48.4156 113.005 49.169C112.356 49.9053 111.556 50.494 110.66 50.8952C109.695 51.3188 108.65 51.5298 107.596 51.5139ZM106.704 48.1475C107.5 48.1614 108.282 47.9358 108.948 47.5001C109.606 47.0617 110.129 46.4491 110.458 45.7306C110.827 44.918 111.009 44.0332 110.991 43.1411C111.01 42.252 110.823 41.3706 110.444 40.5659C110.116 39.8561 109.586 39.2582 108.922 38.8465C108.257 38.4348 107.485 38.2273 106.704 38.2498C105.946 38.2427 105.199 38.4258 104.531 38.7821C103.868 39.1382 103.312 39.6646 102.92 40.307C102.49 41.0331 102.276 41.8663 102.301 42.7096V43.8604C102.276 44.6738 102.497 45.4759 102.934 46.1622C103.345 46.7851 103.91 47.2907 104.574 47.6295C105.232 47.9715 105.963 48.1493 106.704 48.1475Z" fill="#0D1823"/>
<path d="M122.068 51.3988C121.047 51.422 120.034 51.2155 119.104 50.7946C118.294 50.4216 117.61 49.822 117.134 49.0681C116.645 48.2524 116.4 47.3139 116.428 46.3635C116.428 45.2126 116.707 44.2728 117.263 43.5439C117.819 42.8151 118.615 42.2684 119.651 41.9039C120.82 41.5189 122.046 41.334 123.277 41.3573H126.873V43.7741H123.219C122.298 43.7741 121.593 43.9947 121.104 44.4357C120.872 44.6595 120.687 44.9276 120.561 45.2243C120.435 45.5209 120.37 45.8399 120.37 46.1622C120.37 46.4844 120.435 46.8034 120.561 47.1C120.687 47.3967 120.872 47.6648 121.104 47.8886C121.593 48.33 122.298 48.5506 123.219 48.5503C123.747 48.5558 124.271 48.453 124.758 48.2482C125.245 48.0321 125.652 47.6701 125.924 47.2123C126.23 46.7232 126.403 46.0566 126.441 45.2126L127.42 46.3348C127.361 47.3023 127.091 48.245 126.628 49.097C126.213 49.8294 125.593 50.4244 124.844 50.8089C124.087 51.2017 123.161 51.3984 122.068 51.3988ZM127.103 50.9959V46.3635H126.441V41.2133C126.441 40.3313 126.221 39.6648 125.78 39.2136C125.338 38.7632 124.667 38.5379 123.766 38.5375C123.286 38.5375 122.71 38.5471 122.039 38.5662C121.368 38.5856 120.691 38.6096 120.011 38.6383C119.33 38.667 118.721 38.7005 118.184 38.7389V35.3438C118.625 35.3056 119.119 35.2672 119.666 35.2287C120.212 35.1905 120.783 35.1665 121.377 35.1568C121.972 35.1473 122.528 35.1425 123.046 35.1423C124.657 35.1423 125.995 35.3533 127.06 35.7753C128.068 36.1505 128.92 36.8552 129.477 37.775C130.024 38.6863 130.297 39.8708 130.297 41.3284V50.9959H127.103Z" fill="#0D1823"/>
<defs>
<linearGradient id="paint0_linear_361_193" x1="22.4166" y1="37.328" x2="19.6725" y2="43.3265" gradientUnits="userSpaceOnUse">
<stop offset="0.01397" stop-color="#FAC7C3"/>
<stop offset="0.17039" stop-color="#F48FA5"/>
<stop offset="0.28771" stop-color="#D09AC6"/>
<stop offset="0.47765" stop-color="#D09AC6"/>
<stop offset="0.69553" stop-color="#79ADDD"/>
</linearGradient>
<linearGradient id="paint1_linear_361_193" x1="29.8833" y1="32.1716" x2="16.9976" y2="60.3388" gradientUnits="userSpaceOnUse">
<stop offset="0.01397" stop-color="#FAC7C3"/>
<stop offset="0.17039" stop-color="#F48FA5"/>
<stop offset="0.28771" stop-color="#D09AC6"/>
<stop offset="0.47765" stop-color="#D09AC6"/>
<stop offset="0.69553" stop-color="#79ADDD"/>
</linearGradient>
<linearGradient id="paint2_linear_361_193" x1="46.2489" y1="38.529" x2="42.4089" y2="33.1655" gradientUnits="userSpaceOnUse">
<stop offset="0.01397" stop-color="#FAC7C3"/>
<stop offset="0.17039" stop-color="#F48FA5"/>
<stop offset="0.28771" stop-color="#D09AC6"/>
<stop offset="0.47765" stop-color="#D09AC6"/>
<stop offset="0.69553" stop-color="#79ADDD"/>
</linearGradient>
<linearGradient id="paint3_linear_361_193" x1="47.0106" y1="47.571" x2="28.979" y2="22.3858" gradientUnits="userSpaceOnUse">
<stop offset="0.01397" stop-color="#FAC7C3"/>
<stop offset="0.17039" stop-color="#F48FA5"/>
<stop offset="0.28771" stop-color="#D09AC6"/>
<stop offset="0.47765" stop-color="#D09AC6"/>
<stop offset="0.69553" stop-color="#79ADDD"/>
</linearGradient>
<linearGradient id="paint4_linear_361_193" x1="35.6797" y1="51.9287" x2="31.8397" y2="46.5652" gradientUnits="userSpaceOnUse">
<stop offset="0.01397" stop-color="#FAC7C3"/>
<stop offset="0.17039" stop-color="#F48FA5"/>
<stop offset="0.28771" stop-color="#D09AC6"/>
<stop offset="0.47765" stop-color="#D09AC6"/>
<stop offset="0.69553" stop-color="#79ADDD"/>
</linearGradient>
</defs>
</svg>
